<?xml version="1.0" standalone="no"?>
<!DOCTYPE svg PUBLIC "-//W3C//DTD SVG 20010904//EN"
 "http://www.w3.org/TR/2001/REC-SVG-20010904/DTD/svg10.dtd">
<svg version="1.0" xmlns="http://www.w3.org/2000/svg"
 width="700.000000pt" height="700.000000pt" viewBox="0 0 700.000000 700.000000"
 preserveAspectRatio="xMidYMid meet">
<metadata>
Created by potrace 1.14, written by Peter Selinger 2001-2017
</metadata>
<g transform="translate(0.000000,700.000000) scale(0.100000,-0.100000)"
fill="#000000" stroke="none">
<path d="M583 3500 l-1 -2917 2917 1 2916 1 0 2915 0 2915 -2916 1 -2916 2 0
-2918z m2353 2378 c-18 -40 -59 -129 -91 -198 -32 -69 -79 -172 -106 -229 -27
-57 -49 -105 -49 -106 0 -2 -24 -54 -54 -116 -29 -63 -65 -139 -79 -169 -44
-96 -82 -180 -187 -405 -56 -121 -115 -247 -130 -280 -15 -33 -43 -94 -63
-135 -32 -70 -58 -126 -143 -310 -19 -41 -47 -102 -63 -135 l-28 -60 -446 -1
-447 0 0 1108 0 1108 960 0 959 0 -33 -72z m3014 -2045 c0 -1164 -1 -2114 -3
-2112 -2 2 -50 105 -107 229 -57 124 -121 263 -143 310 -21 47 -80 173 -129
280 -97 208 -128 276 -190 410 -37 79 -376 810 -438 945 -15 33 -43 94 -63
135 -111 239 -172 371 -194 420 -14 30 -69 150 -123 265 -53 116 -137 296
-185 400 -48 105 -109 237 -136 294 -27 57 -49 105 -49 107 0 1 -22 49 -49
106 -83 176 -133 282 -142 306 l-9 22 980 0 980 0 0 -2117z m-2665 792 c0
-487 -2 -886 -5 -886 -8 -3 -820 -5 -820 -3 0 3 211 461 292 634 17 36 43 92
58 125 15 33 45 98 67 145 22 47 48 103 58 125 10 22 37 81 60 130 24 50 55
117 70 150 27 59 61 131 125 270 18 39 45 98 61 133 15 34 29 62 31 62 2 0 3
-398 3 -885z m511 630 c26 -55 99 -215 164 -355 65 -140 136 -293 158 -340 22
-47 52 -112 67 -145 15 -33 40 -87 55 -120 86 -182 130 -278 130 -280 0 -2 21
-47 46 -102 25 -54 53 -114 62 -133 8 -19 17 -38 18 -41 2 -3 -173 -5 -389 -5
l-391 1 -1 820 c0 451 2 829 4 839 4 17 6 16 18 -10 7 -16 34 -74 59 -129z
m-2076 -1999 c0 -6 -7 -24 -16 -41 -9 -16 -37 -77 -64 -135 -56 -124 -95 -207
-161 -348 -27 -57 -49 -105 -49 -107 0 -2 -24 -55 -53 -117 -30 -62 -61 -129
-70 -148 -14 -32 -51 -112 -129 -280 -17 -36 -53 -112 -79 -170 l-49 -105 0
731 0 730 335 0 c232 0 335 -3 335 -10z m1564 -1096 l0 -1105 -1032 -3 c-567
-1 -1032 0 -1032 2 0 7 34 83 90 201 28 61 60 128 70 150 39 84 109 236 187
405 20 41 60 129 90 195 31 66 71 154 90 195 20 41 46 98 58 125 13 28 46 99
74 158 28 60 51 110 51 112 0 2 29 65 65 140 36 75 65 138 65 140 0 2 24 55
54 117 29 62 68 144 86 183 17 38 36 75 41 81 6 7 167 10 526 10 l517 -1 0
-1105z m1512 936 c43 -94 101 -220 130 -281 28 -60 63 -135 76 -165 32 -68 78
-169 119 -257 17 -38 44 -95 59 -128 15 -33 43 -94 63 -135 19 -41 75 -163
125 -270 49 -107 111 -239 136 -293 25 -55 46 -100 46 -102 0 -2 22 -50 49
-107 75 -159 141 -301 141 -305 0 -1 -455 -2 -1012 -1 l-1012 3 -1 1090 c0
600 1 1097 3 1106 3 14 58 15 501 15 l498 0 79 -170z"/>
</g>
</svg>
